<svg width="96" height="96" viewBox="0 0 96 96" fill="none" xmlns="http://www.w3.org/2000/svg" role="img" aria-labelledby="title desc">
  <title id="title">MoonGlass Lab logo</title>
  <desc id="desc">A crescent moon, glass panel, and small pixels in a rounded square.</desc>
  <rect width="96" height="96" rx="26" fill="#07130F"/>
  <path d="M22 58.5C22 40.3 36.3 25.4 54.3 24.5C48.4 29 44.7 36.1 44.7 44C44.7 57.5 55.5 68.6 68.9 69C63 74 55.5 77 47.4 77C33.4 77 22 68.7 22 58.5Z" fill="#DCE9CF"/>
  <rect x="38" y="25" width="38" height="44" rx="12" fill="#8FC9A5" fill-opacity="0.16" stroke="#8FC9A5" stroke-width="4"/>
  <path d="M46 36H67" stroke="#E3D58F" stroke-width="4" stroke-linecap="round"/>
  <path d="M46 47H61" stroke="#E3D58F" stroke-width="4" stroke-linecap="round"/>
  <rect x="57" y="58" width="6" height="6" rx="2" fill="#8FC9A5"/>
  <rect x="69" y="58" width="6" height="6" rx="2" fill="#8FC9A5"/>
  <rect x="69" y="70" width="6" height="6" rx="2" fill="#8FC9A5"/>
</svg>
